<?xml version="1.0" encoding="UTF-8" standalone="no"?>
<!DOCTYPE svg PUBLIC "-//W3C//DTD SVG 1.1//EN" "http://www.w3.org/Graphics/SVG/1.1/DTD/svg11.dtd">
<svg version="1.1" xmlns="http://www.w3.org/2000/svg" xmlns:xlink="http://www.w3.org/1999/xlink" preserveAspectRatio="xMidYMid meet" viewBox="0 0 640 640" width="128" height="128"><defs><path d="" id="bHtz2eMC0"></path><path d="" id="bH0JssxL6"></path><path d="" id="aapzrStG3"></path><path d="M417.04 139.79C484.66 162.18 530.79 224.78 532.17 295.99C532.88 332.59 534.65 424.09 537.48 570.49L446.41 489.49L332.64 566.6L251.65 489.49L122.91 560.78C133.77 415.43 140.56 324.58 143.28 288.25C148.16 222.95 190.73 166.53 252.18 143.91C262.01 140.3 241.29 147.92 263.8 139.64C288.62 130.5 314.87 125.83 341.33 125.83C348.04 125.83 333.85 125.83 341.98 125.83C363.76 125.83 385.4 129.31 406.08 136.16C430.84 144.36 408.61 137 417.04 139.79Z" id="c2Cx5CVh2"></path><path d="M312.71 268.65C321.4 287.33 311.77 310.26 291.22 319.81C270.67 329.36 246.93 321.95 238.25 303.26C229.56 284.58 239.19 261.65 259.74 252.1C280.29 242.55 304.02 249.96 312.71 268.65Z" id="brFZvJ632"></path><path d="M449.35 266.42C458.04 285.11 449.59 307.49 430.49 316.37C411.39 325.25 388.83 317.29 380.14 298.6C371.45 279.91 379.91 257.54 399.01 248.66C418.11 239.78 440.67 247.74 449.35 266.42Z" id="cjaXbyLIj"></path></defs><g><g><g><g><use xlink:href="#bHtz2eMC0" opacity="1" fill-opacity="0" stroke="#000000" stroke-width="1" stroke-opacity="1"></use></g></g><g><g><use xlink:href="#bH0JssxL6" opacity="1" fill-opacity="0" stroke="#000000" stroke-width="1" stroke-opacity="1"></use></g></g><g><g><use xlink:href="#aapzrStG3" opacity="1" fill-opacity="0" stroke="#000000" stroke-width="1" stroke-opacity="1"></use></g></g><g><g><filter id="shadow12410792" x="113.91" y="116.83" width="433.56" height="463.66" filterUnits="userSpaceOnUse" primitiveUnits="userSpaceOnUse"><feFlood></feFlood><feComposite in2="SourceAlpha" operator="in"></feComposite><feGaussianBlur stdDeviation="1"></feGaussianBlur><feOffset dx="1" dy="1" result="afterOffset"></feOffset><feFlood flood-color="#5d3939" flood-opacity="0.5"></feFlood><feComposite in2="afterOffset" operator="in"></feComposite><feMorphology operator="dilate" radius="1"></feMorphology><feComposite in2="SourceAlpha" operator="out"></feComposite></filter><path d="M417.04 139.79C484.66 162.18 530.79 224.78 532.17 295.99C532.88 332.59 534.65 424.09 537.48 570.49L446.41 489.49L332.64 566.6L251.65 489.49L122.91 560.78C133.77 415.43 140.56 324.58 143.28 288.25C148.16 222.95 190.73 166.53 252.18 143.91C262.01 140.3 241.29 147.92 263.8 139.64C288.62 130.5 314.87 125.83 341.33 125.83C348.04 125.83 333.85 125.83 341.98 125.83C363.76 125.83 385.4 129.31 406.08 136.16C430.84 144.36 408.61 137 417.04 139.79Z" id="bdOccOqbD" fill="white" fill-opacity="1" filter="url(#shadow12410792)"></path></g><g><use xlink:href="#c2Cx5CVh2" opacity="1" fill-opacity="0" stroke="#000000" stroke-width="11" stroke-opacity="1"></use></g></g><g><use xlink:href="#brFZvJ632" opacity="1" fill="#000000" fill-opacity="1"></use></g><g><use xlink:href="#cjaXbyLIj" opacity="1" fill="#000000" fill-opacity="1"></use></g></g></g></svg>